<svg width="178" height="44" fill="none" xmlns="http://www.w3.org/2000/svg"><path d="M14.526 31.738v10.2l4.408-6.233-4.408-3.967z" fill="url(#paint0_linear_16_69)"/><path d="M25.67 25.466h3.543L25.67 21.46v4.007z" fill="url(#paint1_linear_16_69)"/><path fill-rule="evenodd" clip-rule="evenodd" d="M11.541 29.213L5.23 39.673l5.41-1.804.901-8.656z" fill="url(#paint2_linear_16_69)"/><path d="M0 0v41.938h1.984l9.56-15.97V0H0z" fill="#F5F5F5"/><path fill-rule="evenodd" clip-rule="evenodd" d="M24.705 38.05V19.655l-6.312 12.983 6.312 5.41z" fill="url(#paint3_linear_16_69)"/><path d="M40.222 0H14.526v29.393l2.605 2.345 7.033-14.066 6.852 7.794h8.375v-8.995H25.67V9.195h14.552V0z" fill="#F5F5F5"/><path fill-rule="evenodd" clip-rule="evenodd" d="M85.386 22c0 3.017-.554 5.844-1.662 8.48-1.107 2.635-2.721 4.993-4.84 7.075a23.073 23.073 0 01-7.334 4.784A22.717 22.717 0 0162.985 44c-2.999 0-5.873-.554-8.623-1.661a22.166 22.166 0 01-7.218-4.784c-2.158-2.082-3.8-4.45-4.927-7.104-1.108-2.655-1.662-5.472-1.662-8.451 0-2.998.554-5.815 1.662-8.45 1.126-2.655 2.769-5.023 4.927-7.105a21.789 21.789 0 017.218-4.755A22.527 22.527 0 0162.985 0c2.979 0 5.843.563 8.593 1.69a21.957 21.957 0 017.305 4.755c2.1 2.063 3.705 4.421 4.813 7.076 1.126 2.654 1.69 5.48 1.69 8.479zm-14.552 8.823c-2.063 2.33-4.68 3.495-7.85 3.495-3.227 0-5.862-1.156-7.906-3.466-2.043-2.311-3.065-5.262-3.065-8.852 0-3.533 1.032-6.464 3.094-8.794 2.082-2.35 4.708-3.524 7.878-3.524 3.112 0 5.72 1.175 7.82 3.524 2.1 2.349 3.151 5.28 3.151 8.794 0 3.552-1.04 6.493-3.122 8.823z" fill="#F5F5F5"/><path fill-rule="evenodd" clip-rule="evenodd" d="M86.666 41.938V22.72l7.645 14.066-7.645 5.15zM97.379 28.31v11.18l-3.428-6.72 3.428-4.46z" fill="url(#paint4_linear_16_69)"/><path fill-rule="evenodd" clip-rule="evenodd" d="M98.611 0H86.666v19.823l6.564 10.656 4.15-4.956 9.624 16.415h12.92l-11.43-16.902c3.056-.668 5.376-2.014 6.961-4.039 1.604-2.043 2.406-4.688 2.406-7.934 0-2.14-.41-4.097-1.232-5.873-.802-1.776-1.957-3.237-3.466-4.383-1.337-1.012-2.931-1.728-4.784-2.148C106.546.219 103.29 0 98.611 0zm.888 19.823h-2.12V8.794h2.292c2.502 0 4.278.449 5.328 1.347 1.07.878 1.604 2.368 1.604 4.468 0 1.795-.573 3.113-1.718 3.954-1.127.84-2.922 1.26-5.386 1.26z" fill="#F5F5F5"/><path d="M150.593 2.635v12.49c-1.566-1.738-3.132-3.008-4.698-3.81a10.47 10.47 0 00-4.984-1.232c-3.285 0-5.949 1.127-7.992 3.38-2.025 2.235-3.037 5.157-3.037 8.766 0 3.361 1.031 6.15 3.094 8.365 2.082 2.215 4.726 3.323 7.935 3.323a10.67 10.67 0 004.984-1.203c1.566-.822 3.132-2.11 4.698-3.868v12.519c-1.814.878-3.619 1.537-5.414 1.976-1.795.44-3.609.659-5.443.659-2.291 0-4.411-.277-6.359-.83a17.834 17.834 0 01-5.328-2.464c-3.132-2.101-5.519-4.746-7.162-7.935-1.642-3.19-2.463-6.78-2.463-10.771 0-3.208.515-6.12 1.547-8.737 1.05-2.635 2.626-5.023 4.726-7.161 1.986-2.044 4.221-3.572 6.703-4.584C133.902.506 136.681 0 139.736 0c1.834 0 3.648.22 5.443.659 1.795.44 3.6 1.098 5.414 1.976z" fill="#F5F5F5"/><path fill-rule="evenodd" clip-rule="evenodd" d="M161.754 38.77l-3.606 3.167-2.345-11.343 5.951 8.176zm-7.934-11.18l-1.61 1.623 3.413 7.033-1.803-8.656z" fill="url(#paint5_linear_16_69)"/><path d="M177.906 0H152.21v27.05c.134 0 1.129-1.056 1.61-1.584L165 39.852l3.426-2.524 5.049 4.61h4.431v-9.396h-14.552v-7.076h13.721v-8.995h-13.721V9.195h14.552V0z" fill="#F5F5F5"/><defs><linearGradient id="paint0_linear_16_69" x1="88.953" y1="0" x2="88.953" y2="44" gradientUnits="userSpaceOnUse"><stop offset=".492" stop-color="#F5F5F5"/><stop offset="1" stop-color="#A1B4CC"/></linearGradient><linearGradient id="paint1_linear_16_69" x1="88.953" y1="0" x2="88.953" y2="44" gradientUnits="userSpaceOnUse"><stop offset=".492" stop-color="#F5F5F5"/><stop offset="1" stop-color="#A1B4CC"/></linearGradient><linearGradient id="paint2_linear_16_69" x1="88.953" y1="0" x2="88.953" y2="44" gradientUnits="userSpaceOnUse"><stop offset=".492" stop-color="#F5F5F5"/><stop offset="1" stop-color="#A1B4CC"/></linearGradient><linearGradient id="paint3_linear_16_69" x1="88.953" y1="0" x2="88.953" y2="44" gradientUnits="userSpaceOnUse"><stop offset=".492" stop-color="#F5F5F5"/><stop offset="1" stop-color="#A1B4CC"/></linearGradient><linearGradient id="paint4_linear_16_69" x1="88.953" y1="0" x2="88.953" y2="44" gradientUnits="userSpaceOnUse"><stop offset=".492" stop-color="#F5F5F5"/><stop offset="1" stop-color="#A1B4CC"/></linearGradient><linearGradient id="paint5_linear_16_69" x1="88.953" y1="0" x2="88.953" y2="44" gradientUnits="userSpaceOnUse"><stop offset=".492" stop-color="#F5F5F5"/><stop offset="1" stop-color="#A1B4CC"/></linearGradient></defs></svg>