<svg width="178" height="44" viewBox="0 0 178 44" fill="none" xmlns="http://www.w3.org/2000/svg">
<path d="M14.5263 31.7377V41.9375L18.9344 35.7049L14.5263 31.7377Z" fill="url(#paint0_linear_16_69)"/>
<path d="M25.6695 25.4662H29.2131L25.6695 21.459V25.4662Z" fill="url(#paint1_linear_16_69)"/>
<path fill-rule="evenodd" clip-rule="evenodd" d="M11.541 29.2131L5.22951 39.6721L10.6393 37.8689L11.541 29.2131Z" fill="url(#paint2_linear_16_69)"/>
<path d="M0 0V41.9375H1.98361L11.5443 25.9672V0H0Z" fill="#F5F5F5"/>
<path fill-rule="evenodd" clip-rule="evenodd" d="M24.7049 38.0492V28.8525V19.6557L18.3934 32.6393L24.7049 38.0492Z" fill="url(#paint3_linear_16_69)"/>
<path d="M40.2216 0H14.5263V29.3934L17.1311 31.7377L24.1639 17.6721L31.0164 25.4662H39.3909V16.4714H25.6695V9.19531H40.2216V0Z" fill="#F5F5F5"/>
<path fill-rule="evenodd" clip-rule="evenodd" d="M85.3857 22C85.3857 25.0174 84.8319 27.8437 83.7243 30.4792C82.6166 33.1146 81.0029 35.4731 78.8831 37.5547C76.7442 39.6172 74.2998 41.2118 71.5498 42.3385C68.7998 43.4462 65.9448 44 62.9847 44C59.9864 44 57.1123 43.4462 54.3623 42.3385C51.6314 41.2118 49.2252 39.6172 47.1436 37.5547C44.9856 35.4731 43.3432 33.105 42.2165 30.4505C41.1088 27.796 40.555 24.9792 40.555 22C40.555 19.0017 41.1088 16.1849 42.2165 13.5495C43.3432 10.895 44.9856 8.52691 47.1436 6.44531C49.2252 4.38281 51.6314 2.79774 54.3623 1.6901C57.1123 0.563367 59.9864 0 62.9847 0C65.9639 0 68.8284 0.563367 71.5784 1.6901C74.3475 2.79774 76.7824 4.38281 78.8831 6.44531C80.9838 8.50781 82.588 10.8663 83.6956 13.5208C84.8224 16.1753 85.3857 19.0017 85.3857 22ZM70.8336 30.8229C68.7711 33.1528 66.1548 34.3177 62.9847 34.3177C59.7573 34.3177 57.1218 33.1623 55.0784 30.8516C53.035 28.5408 52.0133 25.5903 52.0133 22C52.0133 18.467 53.0446 15.5356 55.1071 13.2057C57.1887 10.8568 59.8146 9.68229 62.9847 9.68229C66.0975 9.68229 68.7043 10.8568 70.805 13.2057C72.9057 15.5547 73.956 18.4861 73.956 22C73.956 25.5521 72.9152 28.4931 70.8336 30.8229Z" fill="#F5F5F5"/>
<path fill-rule="evenodd" clip-rule="evenodd" d="M86.6659 41.9375V22.7213L94.3115 36.7869L86.6659 41.9375ZM97.3794 28.3115V39.4918L93.9508 32.7708L97.3794 28.3115Z" fill="url(#paint4_linear_16_69)"/>
<path fill-rule="evenodd" clip-rule="evenodd" d="M98.6112 0H86.6659V19.8229L93.2295 30.4792L97.3794 25.5234L107.004 41.9375H119.924L108.494 25.0365C111.55 24.3681 113.87 23.0217 115.455 20.9974C117.059 18.954 117.861 16.309 117.861 13.0625C117.861 10.9236 117.451 8.96615 116.629 7.1901C115.827 5.41406 114.672 3.95312 113.163 2.80729C111.826 1.79514 110.232 1.07899 108.379 0.658855C106.546 0.219619 103.29 0 98.6112 0ZM99.4992 19.8229H97.3794V8.79427H99.6711C102.173 8.79427 103.949 9.24305 104.999 10.1406C106.069 11.0191 106.603 12.5087 106.603 14.6094C106.603 16.4045 106.03 17.7222 104.885 18.5625C103.758 19.4028 101.963 19.8229 99.4992 19.8229Z" fill="#F5F5F5"/>
<path d="M150.593 2.63542V15.125C149.027 13.3872 147.461 12.1172 145.895 11.3151C144.348 10.4939 142.687 10.0833 140.911 10.0833C137.626 10.0833 134.962 11.2101 132.919 13.4635C130.894 15.6979 129.882 18.6198 129.882 22.2292C129.882 25.5903 130.913 28.3785 132.976 30.5938C135.058 32.809 137.702 33.9167 140.911 33.9167C142.687 33.9167 144.348 33.5156 145.895 32.7135C147.461 31.8924 149.027 30.6033 150.593 28.8464V41.3646C148.779 42.2431 146.974 42.9019 145.179 43.3411C143.384 43.7804 141.57 44 139.736 44C137.445 44 135.325 43.7231 133.377 43.1693C131.448 42.6345 129.672 41.8134 128.049 40.7057C124.917 38.605 122.53 35.9601 120.887 32.7708C119.245 29.5816 118.424 25.9913 118.424 22C118.424 18.7917 118.939 15.8793 119.971 13.263C121.021 10.6276 122.597 8.24045 124.697 6.10156C126.683 4.05816 128.918 2.53038 131.4 1.51823C133.902 0.506076 136.681 0 139.736 0C141.57 0 143.384 0.219617 145.179 0.658853C146.974 1.09809 148.779 1.75694 150.593 2.63542Z" fill="#F5F5F5"/>
<path fill-rule="evenodd" clip-rule="evenodd" d="M161.754 38.7705L158.148 41.9375L155.803 30.5938L161.754 38.7705ZM153.82 27.5902L152.21 29.2131L155.623 36.2459L153.82 27.5902Z" fill="url(#paint5_linear_16_69)"/>
<path d="M177.906 0H152.21V27.0492C152.344 27.0492 153.339 25.9938 153.82 25.4662L165 39.8525L168.426 37.3279L173.475 41.9375H177.906V32.5417H163.354V25.4662H177.075V16.4714H163.354V9.19531H177.906V0Z" fill="#F5F5F5"/>
<defs>
<linearGradient id="paint0_linear_16_69" x1="88.9529" y1="0" x2="88.9529" y2="44" gradientUnits="userSpaceOnUse">
<stop offset="0.492002" stop-color="#F5F5F5"/>
<stop offset="1" stop-color="#A1B4CC"/>
</linearGradient>
<linearGradient id="paint1_linear_16_69" x1="88.9529" y1="0" x2="88.9529" y2="44" gradientUnits="userSpaceOnUse">
<stop offset="0.492002" stop-color="#F5F5F5"/>
<stop offset="1" stop-color="#A1B4CC"/>
</linearGradient>
<linearGradient id="paint2_linear_16_69" x1="88.9529" y1="0" x2="88.9529" y2="44" gradientUnits="userSpaceOnUse">
<stop offset="0.492002" stop-color="#F5F5F5"/>
<stop offset="1" stop-color="#A1B4CC"/>
</linearGradient>
<linearGradient id="paint3_linear_16_69" x1="88.9529" y1="0" x2="88.9529" y2="44" gradientUnits="userSpaceOnUse">
<stop offset="0.492002" stop-color="#F5F5F5"/>
<stop offset="1" stop-color="#A1B4CC"/>
</linearGradient>
<linearGradient id="paint4_linear_16_69" x1="88.9529" y1="0" x2="88.9529" y2="44" gradientUnits="userSpaceOnUse">
<stop offset="0.492002" stop-color="#F5F5F5"/>
<stop offset="1" stop-color="#A1B4CC"/>
</linearGradient>
<linearGradient id="paint5_linear_16_69" x1="88.9529" y1="0" x2="88.9529" y2="44" gradientUnits="userSpaceOnUse">
<stop offset="0.492002" stop-color="#F5F5F5"/>
<stop offset="1" stop-color="#A1B4CC"/>
</linearGradient>
</defs>
</svg>
