<svg width="20" height="17" fill="none" xmlns="http://www.w3.org/2000/svg"><path fill-rule="evenodd" clip-rule="evenodd" d="M18.318.031c-.089.019-1.339.485-2.777 1.036C4.958 5.121.89 6.687.706 6.78.294 6.988 0 7.39 0 7.744c0 .36.287.748.709.956.145.072 1.015.343 2.074.646l1.824.523.95 2.733c.521 1.503 1.003 2.847 1.069 2.986.154.325.478.66.785.81.212.104.273.115.628.115.375 0 .406-.007.69-.148.254-.126.466-.303 1.48-1.237.652-.6 1.198-1.09 1.215-1.09.017 0 .729.566 1.581 1.257.853.691 1.65 1.324 1.772 1.406.482.324 1.09.391 1.532.17a1.67 1.67 0 00.804-.936c.032-.091.695-3.313 1.473-7.16 1.285-6.351 1.415-7.03 1.414-7.368-.003-.634-.219-1.022-.703-1.262a1.6 1.6 0 00-.98-.114zm-.367 1.372c-.334.127-2.78 1.064-5.436 2.084-2.657 1.02-6.225 2.387-7.929 3.04-1.704.652-3.099 1.194-3.1 1.205 0 .011.792.246 1.76.523l1.758.503 5.057-2.594c2.782-1.427 5.112-2.606 5.178-2.62.173-.034.46.103.56.267.111.184.107.49-.009.646-.048.065-1.443 1.564-3.1 3.332-1.655 1.767-3.01 3.233-3.01 3.257 0 .04.719.628 4.641 3.797 1.369 1.106 1.461 1.15 1.643.783.072-.143 2.886-14.03 2.886-14.238 0-.282-.12-.28-.9.015zm-6.493 5.362L9.053 8.002a696.804 696.804 0 00-3.257 1.676c-.006.005.346 1.034.783 2.289.436 1.254.804 2.26.817 2.234.014-.025.204-.779.424-1.676.22-.896.424-1.669.454-1.716.042-.067 3.305-3.572 4.098-4.403.087-.092.142-.164.121-.162-.02.003-.486.238-1.035.521zM9.087 12.28c-.248.986-.707 2.9-.698 2.91.017.018 2.072-1.892 2.072-1.926 0-.028-1.296-1.092-1.33-1.092-.01 0-.03.048-.044.108z" fill="#F5F5F5"/></svg>