<svg width="20" height="20" fill="none" xmlns="http://www.w3.org/2000/svg"><path fill-rule="evenodd" clip-rule="evenodd" d="M9.275.007c-.075.01-.303.034-.507.057C7.91.157 6.871.437 6.01.808 3.19 2.022 1.002 4.63.284 7.638c-.554 2.323-.296 4.625.762 6.802l.305.629L.83 17.02c-.29 1.075-.524 2.012-.524 2.084 0 .178.102.382.242.482.236.168.305.157 2.413-.41l1.969-.53.455.233c3.708 1.9 8.104 1.352 11.203-1.395 1.871-1.66 3.085-4.003 3.3-6.372.023-.258.058-.5.077-.537.049-.094.046-1.115-.004-1.145-.021-.013-.039-.107-.039-.208 0-.275-.136-1.15-.253-1.628-.878-3.582-3.723-6.436-7.295-7.316a9.52 9.52 0 00-2.202-.273 14.115 14.115 0 00-.897.002zm-.097 1.231c-1.758.183-3.344.824-4.68 1.892A10.456 10.456 0 003 4.678C1.87 6.185 1.281 7.826 1.215 9.665c-.061 1.716.295 3.133 1.214 4.824.104.19.177.377.177.449 0 .068-.187.823-.416 1.678-.228.856-.404 1.567-.39 1.582.014.014.724-.162 1.577-.392.853-.229 1.61-.417 1.683-.417.09 0 .269.077.549.233a9.037 9.037 0 003.062 1.083c.602.1 2.006.1 2.613 0 2.49-.41 4.622-1.78 6.005-3.858 2.021-3.039 1.92-7.137-.25-10.056-1.434-1.93-3.436-3.134-5.814-3.495-.506-.076-1.577-.107-2.047-.058zm-2.603 3.4c-.228.07-.618.324-.901.59-.48.449-.782.975-.973 1.691-.074.279-.085.422-.084 1.103 0 .86.048 1.173.29 1.907.156.473.555 1.285.858 1.747 1.107 1.687 2.826 2.996 4.595 3.498.66.187 1.043.232 1.755.21.711-.024 1.027-.086 1.532-.301.623-.266 1.232-.812 1.535-1.376.138-.257.156-.322.17-.62.012-.274 0-.374-.072-.567-.079-.21-.164-.312-.808-.965-.872-.884-.984-.953-1.55-.95-.302.001-.38.016-.55.105-.288.15-.425.278-.668.627-.12.17-.241.319-.27.33-.077.03-.646-.12-.981-.256-.898-.367-1.52-.99-1.885-1.89-.137-.337-.285-.908-.256-.984.011-.03.16-.152.33-.271.347-.244.474-.381.624-.67.09-.172.104-.25.105-.552.003-.568-.066-.68-.947-1.555-.644-.638-.754-.732-.954-.806-.236-.087-.68-.11-.895-.044zm.185 1.254c-.224.144-.523.478-.66.74-.201.385-.295.823-.295 1.384-.002 2.358 2.045 4.992 4.575 5.887 1.077.382 2.208.375 2.952-.018.377-.198.818-.667.818-.868 0-.104-1.143-1.232-1.231-1.215-.04.008-.223.23-.408.494-.185.263-.37.505-.41.536-.213.163-.567.153-1.305-.037-1.946-.5-3.11-1.668-3.608-3.619-.19-.74-.2-1.095-.038-1.308.032-.041.273-.227.535-.412.263-.185.485-.37.492-.41.02-.097-1.11-1.235-1.222-1.231a.507.507 0 00-.195.077zM.009 10.036c0 .312.006.44.013.284a7.275 7.275 0 000-.567c-.007-.156-.013-.029-.013.283z" fill="#F5F5F5"/></svg>