<svg width="20" height="17" viewBox="0 0 20 17" fill="none" xmlns="http://www.w3.org/2000/svg">
<path fill-rule="evenodd" clip-rule="evenodd" d="M18.3176 0.0309817C18.229 0.0498789 16.9794 0.516182 15.5409 1.06723C4.95797 5.12107 0.890461 6.68754 0.706181 6.78033C0.293783 6.98805 0 7.38913 0 7.74449C0 8.10436 0.287369 8.49181 0.708841 8.70015C0.853581 8.7717 1.72351 9.04266 2.78276 9.34612L4.60737 9.86884L5.55645 12.6016C6.07843 14.1046 6.55966 15.4487 6.62587 15.5885C6.77953 15.9129 7.10401 16.2474 7.41105 16.3979C7.62306 16.5019 7.68368 16.513 8.03882 16.513C8.4143 16.513 8.44524 16.5064 8.72893 16.3655C8.98349 16.2391 9.19503 16.0624 10.2097 15.128C10.8607 14.5284 11.4072 14.0379 11.4241 14.0379C11.441 14.0379 12.1526 14.6036 13.0054 15.2951C13.8582 15.9865 14.6554 16.6191 14.777 16.7009C15.2592 17.025 15.8667 17.0923 16.3093 16.8705C16.6737 16.6878 16.9694 16.3435 17.113 15.9348C17.1448 15.844 17.8078 12.6221 18.5862 8.775C19.8712 2.42386 20.0014 1.74584 20 1.40695C19.9975 0.773004 19.7812 0.384765 19.2972 0.145426C19.0203 0.00850918 18.6345 -0.0365928 18.3176 0.0309817ZM17.9508 1.40349C17.6174 1.52984 15.1712 2.46732 12.5147 3.48675C9.85827 4.50622 6.29036 5.87409 4.58601 6.52646C2.88167 7.17883 1.48706 7.72142 1.4869 7.73223C1.48675 7.74303 2.27807 7.97833 3.24542 8.25507L5.00428 8.7583L10.0614 6.16368C12.8429 4.73668 15.1729 3.55817 15.2394 3.54481C15.412 3.51012 15.699 3.64653 15.7986 3.81063C15.9104 3.99473 15.9063 4.30015 15.79 4.45683C15.7416 4.52205 14.3469 6.02134 12.6907 7.78865C11.0345 9.55591 9.67934 11.0217 9.67934 11.0459C9.67934 11.0855 10.3985 11.6737 14.3214 14.8434C15.6896 15.9489 15.7823 15.9931 15.9645 15.6263C16.0358 15.4829 18.8503 1.59651 18.8503 1.38836C18.8503 1.10644 18.7294 1.10848 17.9508 1.40349ZM11.458 6.76497C10.9091 7.04847 9.82682 7.60525 9.05287 8.00229C7.24778 8.9283 5.81066 9.66788 5.7965 9.67818C5.79036 9.68258 6.14234 10.7125 6.57867 11.9668C7.01496 13.2211 7.38297 14.2268 7.39643 14.2015C7.40988 14.1764 7.60049 13.422 7.81997 12.5253C8.03945 11.6286 8.24367 10.8562 8.27383 10.809C8.31638 10.7423 11.5794 7.23654 12.3716 6.40628C12.4593 6.31442 12.5141 6.24162 12.4935 6.24441C12.4729 6.24724 12.0069 6.48151 11.458 6.76497ZM9.08662 12.2798C8.83871 13.2656 8.3795 15.1803 8.38861 15.1898C8.40633 15.2081 10.4615 13.2984 10.4615 13.2636C10.4615 13.2355 9.16464 12.1717 9.13034 12.1717C9.12123 12.1717 9.10156 12.2204 9.08662 12.2798Z" fill="#F5F5F5"/>
</svg>
