<svg width="20" height="20" viewBox="0 0 20 20" fill="none" xmlns="http://www.w3.org/2000/svg">
<path fill-rule="evenodd" clip-rule="evenodd" d="M9.27535 0.0072363C9.20027 0.0161149 8.97212 0.041499 8.76834 0.0636759C7.90936 0.157155 6.87051 0.437436 6.00911 0.808107C3.18838 2.02193 1.0023 4.63008 0.284385 7.63811C-0.270042 9.96113 -0.0124845 12.2629 1.04551 14.4396L1.35128 15.0687L0.828517 17.021C0.541007 18.0948 0.305641 19.0323 0.305524 19.1044C0.305212 19.282 0.407626 19.4856 0.547676 19.5856C0.783979 19.7544 0.853087 19.7426 2.96062 19.1754L4.92974 18.6455L5.38531 18.8789C9.09275 20.7788 13.4891 20.2313 16.5879 17.4838C18.4591 15.8248 19.6728 13.4809 19.8874 11.1117C19.9108 10.8536 19.9457 10.6118 19.9652 10.5745C20.0138 10.4807 20.0105 9.46033 19.9614 9.4299C19.94 9.4166 19.9223 9.32316 19.9222 9.22225C19.9219 8.94686 19.7857 8.07203 19.6685 7.59372C18.7912 4.01151 15.9457 1.15781 12.3738 0.277935C11.6638 0.103023 11.0008 0.0209648 10.1724 0.00539801C9.75407 -0.00246363 9.35042 -0.00164227 9.27535 0.0072363ZM9.17785 1.23807C7.42022 1.42124 5.83439 2.06241 4.49782 3.13034C4.04424 3.49272 3.35913 4.20105 3.0011 4.67772C1.86897 6.18512 1.2815 7.82578 1.21544 9.66458C1.15378 11.381 1.51016 12.7977 2.42905 14.4888C2.53287 14.6798 2.6063 14.866 2.6063 14.938C2.6063 15.0056 2.41914 15.761 2.19044 16.6164C1.96171 17.4719 1.78613 18.1834 1.80029 18.1977C1.81448 18.2119 2.52397 18.0358 3.37699 17.8064C4.23 17.577 4.98746 17.3893 5.06024 17.3893C5.14916 17.3893 5.32903 17.4656 5.6087 17.6219C6.62251 18.1885 7.55781 18.5193 8.67084 18.7049C9.27258 18.8052 10.677 18.8057 11.2839 18.7058C13.7743 18.2958 15.9062 16.9259 17.289 14.847C19.3102 11.8081 19.2085 7.70965 17.0393 4.7906C15.6047 2.86015 13.603 1.65705 11.2254 1.29639C10.7193 1.21961 9.64776 1.1891 9.17785 1.23807ZM6.57462 4.63857C6.34651 4.70744 5.95717 4.96183 5.67371 5.22733C5.19401 5.67661 4.89168 6.20276 4.70144 6.91934C4.62745 7.19798 4.61646 7.34125 4.61681 8.02185C4.61724 8.88119 4.66509 9.19542 4.90716 9.92894C5.06336 10.4022 5.46186 11.2138 5.76493 11.6758C6.87172 13.3631 8.59113 14.6719 10.3599 15.1736C11.0192 15.3605 11.4034 15.4064 12.1145 15.3832C12.8265 15.36 13.1425 15.2981 13.6468 15.0829C14.2701 14.8168 14.8789 14.2712 15.1821 13.7067C15.3202 13.4496 15.3379 13.3849 15.3516 13.0871C15.3642 12.813 15.3515 12.7132 15.2795 12.5198C15.2013 12.3098 15.1164 12.2083 14.4722 11.5553C13.6 10.6711 13.4878 10.6023 12.9219 10.6049C12.6201 10.6063 12.5429 10.6211 12.3717 10.7103C12.0835 10.8604 11.9469 10.9885 11.7035 11.3369C11.5845 11.5072 11.4629 11.6559 11.4333 11.6673C11.3573 11.6965 10.788 11.5475 10.4526 11.4107C9.55498 11.0443 8.93308 10.4206 8.56776 9.52041C8.4313 9.18408 8.28275 8.61311 8.31192 8.53692C8.32327 8.5072 8.47151 8.38528 8.64132 8.26595C8.98877 8.02177 9.11642 7.88484 9.2661 7.59579C9.35506 7.42405 9.3698 7.34669 9.37121 7.04403C9.37386 6.47647 9.30526 6.36394 8.42358 5.48923C7.78035 4.85106 7.66963 4.75747 7.4701 4.68335C7.23392 4.59558 6.79052 4.5734 6.57462 4.63857ZM6.75983 5.89248C6.5357 6.03567 6.23742 6.37016 6.10002 6.63237C5.89851 7.01701 5.80491 7.45518 5.8046 8.01571C5.80319 10.3738 7.85024 13.0084 10.3795 13.9035C11.4569 14.2848 12.5878 14.2779 13.3323 13.8855C13.7087 13.6872 14.1504 13.2183 14.1504 13.017C14.1504 12.9128 13.0073 11.7853 12.919 11.8023C12.8793 11.81 12.6957 12.0319 12.5111 12.2955C12.3264 12.5591 12.1415 12.8007 12.1001 12.8324C11.8882 12.9949 11.5343 12.9847 10.7958 12.7947C8.8504 12.2943 7.68671 11.1272 7.18774 9.17626C6.99832 8.43562 6.98814 8.08067 7.15011 7.86817C7.18174 7.82668 7.42268 7.6412 7.6855 7.45601C7.94832 7.27081 8.16961 7.0867 8.17725 7.04693C8.19605 6.94883 7.06739 5.81077 6.95534 5.81484C6.91217 5.8164 6.82418 5.85133 6.75983 5.89248ZM0.0087707 10.0361C0.0087707 10.3481 0.0148547 10.4757 0.0222648 10.3197C0.0296358 10.1637 0.0296358 9.90856 0.0222648 9.75258C0.0148547 9.5966 0.0087707 9.72423 0.0087707 10.0361Z" fill="#F5F5F5"/>
</svg>
